<?xml version="1.0" encoding="UTF-8"?>
<svg width="24px" height="24px" viewBox="0 0 24 24" version="1.1" xmlns="http://www.w3.org/2000/svg" xmlns:xlink="http://www.w3.org/1999/xlink">
    <!-- Generator: Sketch 63.1 (92452) - https://sketch.com -->
    <title>linkedin</title>
    <desc>Created with Sketch.</desc>
    <g id="linkedin" stroke="none" stroke-width="1" fill="none" fill-rule="evenodd" opacity="0.5">
        <g id="iconmonstr-linkedin-1" transform="translate(4.000000, 4.000000)" fill="#000000" fill-rule="nonzero">
            <path d="M3.32,1.66666667 C3.32,2.58733333 2.58,3.33333333 1.66666667,3.33333333 C0.753333333,3.33333333 0.0133333333,2.58733333 0.0133333333,1.66666667 C0.0133333333,0.746666667 0.753333333,0 1.66666667,0 C2.58,0 3.32,0.746666667 3.32,1.66666667 Z M3.33333333,4.66666667 L0,4.66666667 L0,15.3333333 L3.33333333,15.3333333 L3.33333333,4.66666667 Z M8.65466667,4.66666667 L5.34266667,4.66666667 L5.34266667,15.3333333 L8.65533333,15.3333333 L8.65533333,9.734 C8.65533333,6.62066667 12.6746667,6.366 12.6746667,9.734 L12.6746667,15.3333333 L16,15.3333333 L16,8.57933333 C16,3.326 10.052,3.51733333 8.65466667,6.10333333 L8.65466667,4.66666667 Z" id="Shape"></path>
        </g>
    </g>
</svg>